<?xml version="1.0" encoding="UTF-8"?>
<svg id="Layer_2" data-name="Layer 2" xmlns="http://www.w3.org/2000/svg" viewBox="0 0 2152.39 1283.67">
  <defs>
    <style>
      .cls-1 {
        fill: #fff;
      }
    </style>
  </defs>
  <g id="Layer_1-2" data-name="Layer 1">
    <path class="cls-1" d="M2152.39,0v155.67c-98.48,127.42-256.91,234.49-453.37,307.88,1.09,35.46,2.37,70.33,4.15,104.7,11.26,223.62,37.63,424.14,74.28,581.78-72.6,53.04-151.42,97.98-235.18,133.64-89.49-169.89-154.48-422.75-177.99-715.42-.49-6.32-1.09-12.74-1.48-19.07-64.4,9.58-130.78,16.1-198.73,19.07h-175.62c-68.05-2.97-134.53-9.48-198.93-19.17-.49,6.42-.99,12.84-1.48,19.17-23.71,291.97-88.6,544.24-178.09,713.64-84.15-36.15-163.37-81.79-236.17-135.62,36.35-157.15,62.33-356.18,73.49-578.03,1.78-34.57,3.16-69.84,4.25-105.39C255.93,389.47,98.08,282.69,0,155.67V0h3.95c97.98,47.81,253.26,88.11,445.27,115.96,104.8,15.21,220.56,26.67,343.93,33.78,46.13,2.57,93.24,4.64,141.35,5.93,46.42,1.28,93.74,1.97,141.74,1.97s95.22-.69,141.64-1.97c48.1-1.29,95.32-3.36,141.45-5.93,122.48-7.01,237.55-18.47,341.86-33.49,192.91-27.85,348.97-68.25,447.25-116.26h3.95Z"/>
  </g>
</svg>